<svg width="158" height="158" viewBox="0 0 158 158" fill="none" xmlns="http://www.w3.org/2000/svg">
<path d="M52.2743 4.56423C32.8008 11.5814 16.3155 26.5559 7.48526 45.2571C-1.34497 63.992 -2.41937 86.2186 4.56423 105.726C11.5478 125.199 26.5223 141.685 45.2571 150.515C63.992 159.345 86.2186 160.419 105.726 153.436C125.199 146.452 141.685 131.478 150.515 112.743C159.345 94.008 160.419 71.7814 153.436 52.2743C146.452 32.8008 131.478 16.3155 112.743 7.48526C94.008 -1.34497 71.7814 -2.41937 52.2743 4.56423Z" fill="#FDD01D"/>
<path d="M57.2419 18.3959C41.361 24.1037 27.9646 36.2914 20.7459 51.5344C13.5609 66.7775 12.6879 84.908 18.3621 100.755C24.0699 116.636 36.2576 130.033 51.5006 137.251C66.7437 144.436 84.8742 145.309 100.722 139.602C116.603 133.894 129.999 121.706 137.218 106.463C144.403 91.2201 145.276 73.0896 139.601 57.2422C133.894 41.3612 121.706 27.9648 106.463 20.7462C91.2198 13.5611 73.1229 12.6882 57.2419 18.3959Z" fill="#FFBC11"/>
<path d="M84.8072 39.7833V44.2488C87.7618 44.5509 90.2799 45.1553 92.3616 46.0618C94.4768 46.9683 96.3234 48.3449 97.9015 50.1915C99.1437 51.6017 100.084 53.0454 100.755 54.5227C101.46 56 101.796 57.3766 101.796 58.6189C101.796 59.9954 101.293 61.2041 100.252 62.2114C99.2445 63.2186 98.0358 63.6887 96.6256 63.6887C93.906 63.6887 92.1601 62.2114 91.3879 59.2904C90.4814 55.8321 88.299 53.549 84.8072 52.4411V69.6315C88.2319 70.5716 90.9514 71.4109 92.9659 72.1832C95.014 72.9554 96.8271 74.0634 98.4387 75.5407C100.151 77.0515 101.46 78.8646 102.367 81.0134C103.307 83.095 103.777 85.4117 103.777 87.9298C103.777 91.0859 103.038 94.0405 101.528 96.7936C100.05 99.5132 97.9015 101.763 95.0476 103.509C92.1937 105.255 88.7691 106.295 84.8408 106.598V116.905C84.8408 118.517 84.6729 119.725 84.3372 120.464C84.035 121.203 83.3299 121.572 82.2555 121.572C81.2483 121.572 80.5432 121.27 80.1403 120.665C79.7374 120.061 79.5695 119.121 79.5695 117.845V106.665C76.3463 106.295 73.526 105.557 71.0751 104.382C68.6912 103.206 66.6767 101.796 65.0316 100.084C63.42 98.3381 62.2448 96.5586 61.4726 94.712C60.7004 92.8318 60.3311 91.0187 60.3311 89.2057C60.3311 87.8963 60.8347 86.6876 61.8755 85.6467C62.9163 84.5723 64.2258 84.0351 65.7702 84.0351C67.0125 84.0351 68.0533 84.3373 68.9263 84.9081C69.7656 85.4789 70.37 86.2847 70.7057 87.3591C71.4444 89.6086 72.0823 91.3545 72.6531 92.5632C73.1903 93.7383 74.0297 94.8463 75.1376 95.82C76.2792 96.8272 77.7565 97.5659 79.6031 98.1031V78.8646C75.9099 77.8573 72.821 76.7158 70.3364 75.4735C67.8519 74.1977 65.8374 72.4182 64.2929 70.1015C62.7485 67.7848 61.9762 64.7967 61.9762 61.1706C61.9762 56.4365 63.4871 52.5418 66.4753 49.52C69.497 46.4983 73.8618 44.7188 79.5695 44.2152V39.8169C79.5695 37.5002 80.4425 36.3586 82.1884 36.3586C83.9343 36.3922 84.8072 37.5338 84.8072 39.7833ZM79.5695 68.1542V52.3068C77.2528 53.0118 75.4398 53.9184 74.1639 55.0263C72.8545 56.1679 72.2166 57.8802 72.2166 60.1633C72.2166 62.3457 72.821 63.9909 74.0296 65.1324C75.2383 66.2404 77.085 67.2476 79.5695 68.1542ZM84.8072 80.4426V98.5731C87.5939 98.0359 89.7427 96.8944 91.2536 95.2156C92.7645 93.5369 93.5367 91.5895 93.5367 89.34C93.5367 86.9562 92.7981 85.1095 91.2872 83.8001C89.8435 82.4907 87.6947 81.3491 84.8072 80.4426Z" fill="#F9A705"/>
<path d="M81.7857 39.7833V44.2488C84.7403 44.5509 87.2585 45.1553 89.3401 46.0618C91.4553 46.9683 93.302 48.3449 94.88 50.1915C96.1223 51.6017 97.0624 53.0454 97.7339 54.5227C98.4389 56 98.7747 57.3766 98.7747 58.6189C98.7747 59.9954 98.2711 61.2041 97.2302 62.2114C96.223 63.2186 95.0143 63.6887 93.6041 63.6887C90.9181 63.6887 89.1387 62.2114 88.3664 59.2904C87.4599 55.8321 85.2775 53.549 81.7857 52.4411V69.6315C85.2104 70.5716 87.93 71.4109 89.9445 72.1832C91.9925 72.9554 93.8056 74.0634 95.4172 75.5407C97.1295 77.0515 98.4389 78.8646 99.3455 81.0134C100.286 83.095 100.756 85.4117 100.756 87.9298C100.756 91.0859 100.017 94.0405 98.5061 96.7936C97.0288 99.5132 94.88 101.763 92.0261 103.509C89.1722 105.255 85.7476 106.295 81.8193 106.598V116.905C81.8193 118.517 81.6514 119.725 81.3157 120.464C81.0135 121.203 80.3084 121.572 79.234 121.572C78.2268 121.572 77.5553 121.27 77.1188 120.665C76.7495 120.061 76.548 119.121 76.548 117.845V106.665C73.3248 106.295 70.5045 105.557 68.0536 104.382C65.6697 103.206 63.6552 101.796 62.0101 100.084C60.3985 98.3381 59.2233 96.5586 58.4511 94.712C57.6789 92.8318 57.3096 91.0187 57.3096 89.2057C57.3096 87.8963 57.8132 86.6876 58.854 85.6467C59.8948 84.5723 61.2043 84.0351 62.7487 84.0351C63.991 84.0351 65.0318 84.3373 65.9048 84.9081C66.7441 85.4789 67.3485 86.2847 67.6842 87.3591C68.4229 89.6086 69.0608 91.3545 69.6316 92.5632C70.1688 93.7383 71.0082 94.8463 72.1161 95.82C73.2577 96.8272 74.735 97.5659 76.5816 98.1031V78.8646C72.8884 77.8573 69.7995 76.7158 67.3149 75.4735C64.8304 74.1977 62.8159 72.4182 61.2714 70.1015C59.727 67.7848 58.9547 64.7967 58.9547 61.1706C58.9547 56.4365 60.4656 52.5418 63.4538 49.52C66.4755 46.4983 70.8739 44.7188 76.5816 44.2152V39.8169C76.5816 37.5002 77.4546 36.3586 79.2005 36.3586C80.8792 36.3922 81.7857 37.5338 81.7857 39.7833ZM76.5145 68.1542V52.3068C74.1978 53.0118 72.3847 53.9184 71.1089 55.0263C69.7995 56.1679 69.1615 57.8802 69.1615 60.1633C69.1615 62.3457 69.7659 63.9909 70.9746 65.1324C72.1833 66.2404 74.0299 67.2476 76.5145 68.1542ZM81.7857 80.4426V98.5731C84.5725 98.0359 86.7213 96.8944 88.2321 95.2156C89.743 93.5369 90.5152 91.5895 90.5152 89.34C90.5152 86.9562 89.7766 85.1095 88.2657 83.8001C86.7884 82.4907 84.6396 81.3491 81.7857 80.4426Z" fill="#FECE1F"/>
</svg>
