<svg width="963" height="450" viewBox="0 0 963 450" fill="none" xmlns="http://www.w3.org/2000/svg">
<g clip-path="url(#clip0)" filter="url(#filter0_d)">
<path d="M124.641 219.019C124.641 219.019 124.054 219.354 124.641 219.019C118.762 228.061 112.883 237.103 107.592 246.145C107.592 246.48 107.004 246.815 107.004 246.815C101.713 255.857 96.422 264.899 91.7188 273.941C91.7188 274.276 91.7188 274.276 91.1309 274.611C88.7792 278.964 86.4276 283.318 84.6639 287.336C84.6639 287.671 84.076 288.006 84.076 288.341C79.9607 297.048 75.8453 306.09 71.73 314.798C71.73 315.467 71.1421 316.137 71.1421 316.807C67.6146 325.514 64.0872 333.886 61.1477 342.259C61.1477 342.928 60.5598 343.598 60.5598 344.268C59.384 347.952 57.6203 351.636 56.4444 355.319C56.4444 355.654 55.8565 356.324 55.8565 356.659C54.6807 360.678 52.917 364.696 51.7412 369.05C51.7412 369.72 51.1533 370.389 51.1533 371.059C49.9775 374.408 49.3896 377.757 48.2138 381.106C48.2138 382.111 47.6259 382.78 47.6259 383.785C46.4501 387.804 45.8621 391.488 44.6863 395.506C44.6863 395.841 44.6863 395.841 44.6863 396.176C44.0984 399.525 43.5105 402.539 42.3347 405.888L89.3671 430L211.064 352.64L347.458 421.963L469.154 344.603L604.96 413.925L726.656 336.565L862.463 405.888C862.463 405.888 886.567 390.818 907.143 377.422C904.792 373.069 903.028 368.38 900.088 363.692C893.622 351.301 885.979 338.24 877.748 324.844C869.517 311.449 860.111 297.718 850.117 283.988C840.122 270.257 828.952 256.526 817.782 242.796C806.612 229.065 794.266 215.67 781.332 202.609C768.398 189.548 755.464 176.822 741.942 165.101C728.42 153.045 714.898 141.994 701.377 131.277C694.322 126.254 687.855 120.896 680.8 116.207C677.272 113.863 673.745 111.519 670.805 109.174C667.278 106.83 663.751 104.821 660.811 102.477C654.344 98.1231 647.877 94.1044 641.41 90.4206C635.531 86.7368 629.064 83.3878 623.185 80.0389C617.306 76.69 611.427 74.0109 606.136 71.3318C603.196 69.9922 600.845 68.6526 598.493 67.648C596.141 66.6433 593.79 65.3037 591.438 64.2991C586.735 62.2897 582.62 60.2804 579.092 58.9408C575.565 57.6012 572.037 56.2617 569.686 55.257C564.395 53.2477 562.043 52.243 562.043 52.243L563.219 51.2383C563.219 51.2383 566.158 52.243 571.449 53.9174C574.389 54.9221 577.916 55.9268 581.444 56.9315C585.559 58.271 589.674 59.9455 594.966 61.6199C597.317 62.6246 600.257 63.6293 603.196 64.6339C606.136 65.6386 608.487 66.9782 611.427 67.9829C617.306 70.3271 623.773 73.0062 629.652 76.0202C642.586 82.0483 656.696 88.7461 670.805 97.1184C685.503 105.156 700.201 114.533 714.898 124.914C722.541 129.938 729.596 135.296 737.239 140.989C744.881 146.682 751.936 152.375 758.991 158.403C766.046 164.431 773.101 170.46 780.156 176.822C787.211 183.185 793.678 189.548 800.732 196.246C813.666 209.642 826.6 223.037 838.358 237.103C849.529 251.168 860.699 265.234 870.693 279.299C880.688 293.365 888.918 307.43 897.149 321.16C905.38 334.891 911.259 348.287 917.138 361.013C918.314 363.692 919.489 366.371 920.665 369.05C936.539 359.003 940.654 356.324 953 348.622C878.336 193.567 679.036 -6.36293 466.802 -3.44217e-06C390.963 2.34423 321.59 30.81 262.211 73.676C207.536 113.193 161.092 164.766 124.641 219.019Z" fill="white"/>
<path d="M917.726 361.347C911.846 348.622 905.967 334.891 897.737 321.495C889.506 307.765 881.275 293.699 871.281 279.634C861.287 265.569 850.704 251.503 838.946 237.438C827.188 223.707 814.254 209.977 801.32 196.581C794.853 189.883 787.799 183.52 780.744 177.157C773.689 170.794 766.634 164.766 759.579 158.738C752.524 152.71 745.469 147.017 737.827 141.324C730.184 135.631 723.129 130.273 715.486 125.249C700.789 114.868 686.091 105.491 671.393 97.4533C657.284 89.081 643.174 82.0483 630.24 76.3551C623.773 73.3411 617.894 70.662 612.015 68.3177C609.075 66.9782 606.136 65.9735 603.784 64.9688C600.845 63.9642 598.493 62.9595 595.554 61.9548C590.262 60.2804 586.147 58.6059 582.032 57.2663C577.916 55.9268 574.389 54.9221 572.037 54.2523C566.746 52.5779 563.807 51.5732 563.807 51.5732L562.631 52.5779C562.631 52.5779 565.57 53.5825 570.274 55.5919C572.625 56.5966 576.153 57.9361 579.68 59.2757C583.208 60.6153 587.323 62.6246 592.026 64.6339C594.378 65.6386 596.729 66.6433 599.081 67.9829C601.433 69.3224 603.784 70.3271 606.724 71.6667C612.015 74.3458 617.894 77.0249 623.773 80.3738C629.652 83.7227 636.119 86.7368 641.998 90.7554C648.465 94.4392 654.932 98.4579 661.399 102.812C664.926 104.821 667.866 107.165 671.393 109.509C674.921 111.854 677.86 114.198 681.388 116.542C688.443 121.231 694.91 126.254 701.964 131.612C715.486 141.994 729.596 153.38 742.53 165.436C756.052 177.492 768.986 190.218 781.919 202.944C794.265 216.005 806.611 229.4 818.37 243.131C830.128 256.861 840.71 270.592 850.704 284.322C860.699 298.053 870.105 311.783 878.336 325.179C886.567 338.575 894.209 351.636 900.676 364.027C903.028 368.715 905.38 373.069 907.731 377.757C914.198 373.738 914.198 373.403 921.253 369.385C920.077 366.706 918.901 364.027 917.726 361.347Z" fill="#F5F5F5"/>
<path d="M44.6864 396.176C44.6864 395.841 44.6864 395.841 44.6864 395.506C45.8622 391.822 46.4501 387.804 47.6259 383.785C47.6259 382.78 48.2138 382.111 48.2138 381.106C49.3897 377.757 49.9776 374.408 51.1534 371.059C51.1534 370.389 51.7413 369.72 51.7413 369.05C52.9171 365.031 54.0929 361.012 55.8566 356.659C55.8566 356.324 56.4445 355.654 56.4445 355.319C57.6203 351.636 58.7961 347.952 60.5599 344.268C60.5599 343.598 61.1478 342.928 61.1478 342.259C64.0873 333.886 67.6147 325.179 71.1421 316.807C71.1421 316.137 71.7301 315.467 71.7301 314.798C75.2575 306.09 79.3728 297.383 84.0761 288.341C84.0761 288.006 84.664 287.671 84.664 287.336C87.0156 282.983 88.7793 278.629 91.1309 274.611C91.1309 274.276 91.1309 274.276 91.7188 273.941C96.4221 264.899 101.713 255.857 107.004 246.815C107.004 246.48 107.592 246.145 107.592 246.145C112.883 237.103 118.762 228.061 124.642 219.019C124.642 219.019 124.642 219.019 124.642 218.684C161.092 164.097 207.536 112.858 262.211 73.676C137.575 142.664 46.4501 276.62 10 389.143L42.3348 405.553C42.9227 402.539 43.5106 399.19 44.6864 396.176Z" fill="#E5E5E5"/>
<path d="M107.004 246.145C112.296 237.103 118.175 228.061 124.054 219.019C118.175 228.061 112.296 237.103 107.004 246.145Z" fill="#CBDBE6"/>
<path d="M262.211 74.0109C207.536 113.193 161.092 164.766 124.642 219.019C161.092 164.766 207.536 113.193 262.211 74.0109Z" fill="#CBDBE6"/>
<path d="M91.7183 273.941C96.4215 264.899 101.713 255.857 107.004 246.815C101.125 256.192 96.4215 265.234 91.7183 273.941Z" fill="#CBDBE6"/>
<path d="M84.6638 287.671C87.0154 283.318 88.7792 278.964 91.1308 274.946C88.7792 278.964 86.4275 283.318 84.6638 287.671Z" fill="#CBDBE6"/>
</g>
<defs>
<filter id="filter0_d" x="0" y="0" width="963" height="450" filterUnits="userSpaceOnUse" color-interpolation-filters="sRGB">
<feFlood flood-opacity="0" result="BackgroundImageFix"/>
<feColorMatrix in="SourceAlpha" type="matrix" values="0 0 0 0 0 0 0 0 0 0 0 0 0 0 0 0 0 0 127 0"/>
<feOffset dy="10"/>
<feGaussianBlur stdDeviation="5"/>
<feColorMatrix type="matrix" values="0 0 0 0 0 0 0 0 0 0 0 0 0 0 0 0 0 0 0.1 0"/>
<feBlend mode="normal" in2="BackgroundImageFix" result="effect1_dropShadow"/>
<feBlend mode="normal" in="SourceGraphic" in2="effect1_dropShadow" result="shape"/>
</filter>
<clipPath id="clip0">
<rect width="943" height="430" fill="white" transform="translate(10)"/>
</clipPath>
</defs>
</svg>
