<svg width="997" height="225" viewBox="0 0 997 225" fill="none" xmlns="http://www.w3.org/2000/svg">
<g clip-path="url(#clip0)">
<path d="M27.6946 18.8953L265.982 118.771L369.836 53.4468L477.729 154.402L576.968 81.5199L701.016 154.402L841.219 30.7724L975.653 0L871.798 283.43L135.011 230.523L27.6946 18.8953Z" fill="white" fill-opacity="0.73"/>
<g filter="url(#filter0_d)">
<path d="M945.073 50.2076C946.227 60.4651 947.957 70.1827 949.111 79.3605C951.419 98.2558 953.15 115.532 953.727 131.188C954.304 138.746 954.304 146.304 954.304 152.782C954.304 159.261 954.304 165.739 954.304 171.138C954.304 176.537 953.727 181.395 953.727 185.714C953.15 190.033 953.15 193.812 952.573 196.512C951.996 202.45 951.419 205.689 951.419 205.689H949.111C949.111 205.689 949.111 202.45 949.111 196.512C949.111 193.812 949.111 190.033 949.111 185.714C949.111 181.395 948.534 176.537 947.957 171.138C947.957 165.739 946.804 159.801 946.227 153.322C945.65 146.844 944.496 139.826 943.919 132.267C942.188 117.151 939.303 100.415 935.841 81.5199C934.11 72.3422 931.802 62.6246 930.071 52.907C929.494 50.2076 928.917 47.5083 928.341 45.3488C906.416 65.8638 881.029 89.6179 881.029 89.6179L750.635 12.4169L621.394 177.616L491.576 100.415L362.335 177.616L233.095 12.4169L103.854 89.6179L58.8504 47.5083C58.8504 48.0482 58.8504 48.588 58.8504 49.1279C58.8504 50.7475 58.2734 52.3671 58.2734 53.9867C57.1195 59.3854 56.5425 64.784 55.3886 69.6429C55.3886 70.1827 55.3886 71.2625 54.8116 71.8023C53.6577 77.7409 53.0807 83.6794 52.5037 89.0781C51.9268 90.1578 51.9268 91.7774 51.3498 93.397C50.7728 97.7159 50.1959 102.575 49.6189 106.894C49.6189 107.973 49.6189 109.593 49.0419 110.673C48.465 116.071 47.888 121.47 47.888 126.869C47.888 127.949 47.888 129.028 47.888 130.108C47.888 134.427 47.311 138.746 47.311 143.065C47.311 144.684 47.311 145.764 47.311 147.384C47.311 152.243 47.311 157.641 47.311 162.5C47.311 220.266 58.8504 274.792 80.1982 325.54C83.083 332.018 85.9679 339.037 89.4297 345.515C91.1606 348.754 92.8915 351.993 94.0454 355.233C97.5072 361.711 100.969 368.189 104.431 374.668C107.893 381.146 111.931 387.085 115.97 393.023C117.701 396.262 120.009 398.962 122.317 402.201C130.394 414.078 139.626 425.955 148.857 437.292C162.705 454.028 178.283 469.684 195.015 484.801C197.9 487.5 200.784 489.659 203.092 491.819C208.862 496.678 214.632 500.997 220.401 505.855C226.171 510.174 232.518 515.033 238.287 518.812C247.519 525.291 256.75 531.229 266.559 537.168C272.905 540.947 279.252 544.726 286.176 548.505C289.637 550.125 293.099 552.284 295.984 553.904C309.254 560.922 323.102 566.86 337.526 572.799C340.988 574.419 344.449 575.498 348.488 577.118C355.412 579.817 362.912 582.517 370.413 584.676C418.301 599.792 469.651 607.89 522.732 607.89C529.656 607.89 536.58 607.89 543.503 607.351C544.08 607.351 545.234 607.351 545.811 607.351C552.158 606.811 559.081 606.811 565.428 606.271C566.582 606.271 567.736 606.271 568.313 606.271C574.659 605.731 581.006 605.191 587.353 604.111C588.507 604.111 589.661 603.571 590.238 603.571C596.584 602.492 602.931 601.952 609.277 600.872C609.854 600.872 611.008 600.332 611.585 600.332C617.932 599.253 624.279 598.173 630.625 596.553C631.202 596.553 631.202 596.553 631.779 596.553C638.126 594.934 644.473 593.854 650.819 591.694C651.396 591.694 651.396 591.694 651.973 591.694C658.32 590.075 664.666 588.455 670.436 586.296C671.013 586.296 672.167 585.756 672.744 585.756C678.514 584.136 684.86 581.977 690.63 579.817C691.207 579.277 692.361 579.277 692.938 578.738C698.707 576.578 704.477 574.419 710.247 572.259C710.824 571.719 711.978 571.719 712.555 571.179C718.324 569.02 724.094 566.321 729.864 563.621C730.441 563.621 730.441 563.081 731.018 563.081C743.134 557.683 754.673 551.744 766.213 545.266C766.79 545.266 766.79 544.726 767.367 544.726C773.136 541.487 778.329 538.247 783.522 535.008C784.099 534.468 784.676 534.468 785.253 533.929C790.445 530.689 795.638 527.45 800.831 523.671C801.408 523.131 801.985 523.131 802.562 522.591C807.754 519.352 812.947 515.573 817.563 511.794C818.14 511.254 818.14 511.254 818.717 510.714C823.909 506.935 829.102 503.156 833.718 498.837C934.11 415.698 997 295.847 997 161.96C997 116.071 989.499 59.9253 975.652 0C962.382 12.4169 958.343 16.196 941.611 31.8522C942.765 37.7907 943.919 44.2691 945.073 50.2076Z" fill="white"/>
</g>
<path d="M935.265 81.5199C938.726 99.8754 941.611 117.151 943.342 132.267C944.496 139.826 945.073 146.844 945.65 153.322C946.227 159.801 946.804 165.739 947.381 171.138C947.958 176.537 947.958 181.395 948.535 185.714C948.535 190.033 948.535 193.812 948.535 196.512C948.535 202.45 948.535 205.689 948.535 205.689H950.843C950.843 205.689 951.42 202.45 951.997 196.512C951.997 193.812 952.574 190.033 953.151 185.714C953.151 181.395 953.728 176.537 953.728 171.138C954.305 165.739 953.728 159.261 953.728 152.782C953.728 146.304 953.728 138.746 953.151 131.188C952.574 115.532 950.843 98.2558 948.535 79.3605C947.381 69.6429 945.65 59.9253 944.496 50.2076C943.342 44.2691 942.188 38.3306 941.034 32.392C934.111 38.8704 933.534 39.4103 926.61 45.8887C927.187 48.588 927.764 51.2874 928.341 53.4468C931.226 63.1645 933.534 72.3422 935.265 81.5199Z" fill="#F5F5F5"/>
<path d="M475.421 650C618.509 650 747.173 590.615 834.295 497.218C829.102 500.997 824.487 505.316 819.294 509.095C818.717 509.635 818.717 509.635 818.14 510.174C812.947 513.953 808.332 517.193 803.139 520.972C802.562 521.512 801.985 521.512 801.408 522.051C796.215 525.291 791.023 529.07 785.83 532.309C785.253 532.849 784.676 532.849 784.099 533.389C778.906 536.628 773.137 539.867 767.944 543.106C767.367 543.106 767.367 543.646 766.79 543.646C755.25 550.125 743.711 556.063 731.595 561.462C731.018 561.462 731.018 562.002 730.441 562.002C724.671 564.701 718.902 566.861 713.132 569.56C712.555 570.1 711.401 570.1 710.824 570.64C705.054 572.799 699.285 574.958 693.515 577.118C692.938 577.658 691.784 577.658 691.207 578.198C685.438 580.357 679.668 582.517 673.321 584.136C672.744 584.136 671.59 584.676 671.013 584.676C664.667 586.836 658.897 588.455 652.55 590.075C651.973 590.075 651.973 590.075 651.396 590.075C645.05 591.694 638.703 593.314 632.356 594.934C631.779 594.934 631.779 594.934 631.203 594.934C624.856 596.553 618.509 597.633 612.163 598.713C611.586 598.713 610.432 599.253 609.855 599.253C603.508 600.332 597.161 601.412 590.815 601.952C589.661 601.952 588.507 602.492 587.93 602.492C581.583 603.032 575.237 604.111 568.89 604.651C567.736 604.651 566.582 604.651 566.005 604.651C559.659 605.191 553.312 605.731 546.388 605.731C545.811 605.731 544.657 605.731 544.08 605.731C537.157 606.271 530.233 606.271 523.31 606.271C470.229 606.271 418.878 598.173 370.99 583.056C363.49 580.897 356.566 578.198 349.065 575.498C345.604 574.419 342.142 572.799 338.103 571.179C323.679 565.781 309.832 559.302 296.561 552.284C293.1 550.664 289.638 549.045 286.753 546.885C280.406 543.106 273.483 539.867 267.136 535.548C257.328 529.61 248.096 523.671 238.865 517.193C232.518 512.874 226.748 508.555 220.979 504.236C215.209 499.917 209.439 495.058 203.67 490.199C200.785 488.04 197.9 485.341 195.592 483.181C178.86 468.605 163.859 452.409 149.435 435.673C140.203 424.336 130.972 412.998 122.894 400.581C120.586 397.342 118.855 394.643 116.547 391.404C112.509 385.465 109.047 378.987 105.008 373.048C101.546 366.57 98.0845 360.091 94.6227 353.613C92.8918 350.374 91.1609 347.135 90.0069 343.895C87.1221 337.417 83.6603 330.939 80.7755 323.92C58.8507 274.253 46.7344 219.186 46.7344 161.96C46.7344 157.101 46.7344 152.243 46.7344 146.844C46.7344 145.224 46.7344 144.145 46.7344 142.525C46.7344 138.206 47.3113 133.887 47.3113 129.568C47.3113 128.488 47.3113 127.409 47.3113 126.329C47.8883 120.93 47.8883 115.532 48.4653 110.133C48.4653 109.053 48.4653 107.434 49.0422 106.354C49.6192 102.035 50.1962 97.1761 50.7731 92.8572C51.9271 91.7774 51.9271 90.1578 51.9271 89.0781C52.504 83.1395 53.658 77.7409 54.235 71.8023C54.235 71.2625 54.235 70.1827 54.8119 69.6429C55.3889 64.2442 56.5428 58.8455 57.6968 53.9867C57.6968 52.3671 58.2737 50.7475 58.2737 49.1279C58.2737 48.588 58.2737 48.0482 58.2737 47.5083L27.6944 18.8954C9.80845 87.9983 0 153.322 0 205.689C0 451.329 212.901 650 475.421 650Z" fill="#E5E5E5"/>
<path d="M48.4648 126.869C49.0418 121.47 49.0418 116.071 49.6188 110.673C49.0418 116.071 48.4648 121.47 48.4648 126.869Z" fill="#CBDBE6"/>
<path d="M47.311 142.525C47.311 138.206 47.888 133.887 47.888 129.568C47.888 133.887 47.311 138.206 47.311 142.525Z" fill="#CBDBE6"/>
<path d="M50.196 106.894C50.773 102.575 51.35 97.716 51.927 93.397C50.773 97.716 50.196 102.575 50.196 106.894Z" fill="#CBDBE6"/>
<path d="M46.7349 161.96C46.7349 157.101 46.7349 152.243 46.7349 146.844C47.306 151.703 46.7349 157.101 46.7349 161.96Z" fill="#CBDBE6"/>
<path d="M51.927 89.0781C52.504 83.1395 53.6579 77.7409 54.2349 71.8023C53.6579 77.7409 53.0809 83.1395 51.927 89.0781Z" fill="#CBDBE6"/>
<path d="M54.8118 69.6429C55.3887 64.2442 56.5427 58.8455 57.6966 53.9867C56.5427 58.8455 55.3887 64.2442 54.8118 69.6429Z" fill="#CBDBE6"/>
</g>
<defs>
<filter id="filter0_d" x="27.311" y="-24" width="989.689" height="647.89" filterUnits="userSpaceOnUse" color-interpolation-filters="sRGB">
<feFlood flood-opacity="0" result="BackgroundImageFix"/>
<feColorMatrix in="SourceAlpha" type="matrix" values="0 0 0 0 0 0 0 0 0 0 0 0 0 0 0 0 0 0 127 0"/>
<feOffset dy="-4"/>
<feGaussianBlur stdDeviation="10"/>
<feColorMatrix type="matrix" values="0 0 0 0 0 0 0 0 0 0 0 0 0 0 0 0 0 0 0.1 0"/>
<feBlend mode="normal" in2="BackgroundImageFix" result="effect1_dropShadow"/>
<feBlend mode="normal" in="SourceGraphic" in2="effect1_dropShadow" result="shape"/>
</filter>
<clipPath id="clip0">
<rect width="997" height="650" fill="white"/>
</clipPath>
</defs>
</svg>
