<svg width="201" height="264" viewBox="0 0 201 264" fill="none" xmlns="http://www.w3.org/2000/svg">
<path d="M201 164.814C201 219.697 156.002 264 100.583 264C45.163 264 0 219.532 0 164.814C0 109.931 31.4321 0 100.417 0C169.568 0 201 109.931 201 164.814Z" fill="white"/>
<path d="M29.9432 159.359C30.9358 132.083 39.7037 90.4246 73.6173 39.8397L61.7062 34.5498C61.7062 34.5498 17.3704 93.7308 16.5432 159.359H29.9432Z" fill="#D3D4D8"/>
<path d="M17.0396 173.575C17.7013 180.518 18.8593 187.627 20.6791 194.57H33.2519C33.2519 194.57 30.605 186.8 29.7778 172.584L17.0396 173.575Z" fill="#D3D4D8"/>
</svg>
