<?xml version="1.0" encoding="utf-8"?>
<!-- Generator: Adobe Illustrator 24.1.3, SVG Export Plug-In . SVG Version: 6.00 Build 0)  -->
<svg version="1.1" id="Layer_1" xmlns="http://www.w3.org/2000/svg" xmlns:xlink="http://www.w3.org/1999/xlink" x="0px" y="0px"
	 viewBox="0 0 95 95" style="enable-background:new 0 0 95 95;" xml:space="preserve">
<style type="text/css">
	.st0{fill:#497603;}
	.st1{fill-rule:evenodd;clip-rule:evenodd;fill:#FFFFFF;}
</style>
<g>
	<circle class="st0" cx="47.5" cy="47.5" r="42.5"/>
</g>
<path class="st1" d="M67.8,46.8L48.1,28c-0.4-0.3-0.9-0.3-1.3,0L27.4,46.8l-0.6,0.6c-0.2,0.2-0.3,0.4-0.3,0.7v27.8
	c0,0.5,0.4,0.9,0.9,0.9h14V59.8c0-0.5,0.4-0.9,0.9-0.9h10.6c0.5,0,0.9,0.4,0.9,0.9v16.9h14c0.5,0,0.9-0.4,0.9-0.9V47.9
	c0-0.3-0.1-0.5-0.3-0.7L67.8,46.8z"/>
<path class="st1" d="M47.5,23.4l26.9,25.3c0.7,0.7,1.9,0.7,2.6-0.1c0.7-0.7,0.7-1.9-0.1-2.5L48.8,19.7c-0.7-0.7-1.8-0.7-2.5,0
	L18.1,46.1c-0.7,0.7-0.7,1.8-0.1,2.5s1.8,0.7,2.6,0.1L47.5,23.4z"/>
</svg>
