<svg width="251" height="243" viewBox="0 0 251 243" fill="none" xmlns="http://www.w3.org/2000/svg">
<g opacity="0.6">
<rect width="251" height="243" rx="40" fill="#56C2F6"/>
<path d="M79.9912 113.336H89.4658C93.9775 113.336 97.3203 112.208 99.4941 109.952C101.668 107.696 102.755 104.702 102.755 100.97C102.755 97.3604 101.668 94.5508 99.4941 92.541C97.3613 90.5312 94.4082 89.5264 90.6348 89.5264C87.2305 89.5264 84.3799 90.4697 82.083 92.3564C79.7861 94.2021 78.6377 96.6221 78.6377 99.6162H60.8574C60.8574 94.9404 62.1084 90.7568 64.6104 87.0654C67.1533 83.333 70.6807 80.4209 75.1924 78.3291C79.7451 76.2373 84.749 75.1914 90.2041 75.1914C99.6787 75.1914 107.103 77.4678 112.476 82.0205C117.849 86.5322 120.535 92.7666 120.535 100.724C120.535 104.825 119.284 108.599 116.782 112.044C114.28 115.489 110.999 118.135 106.938 119.98C111.983 121.785 115.736 124.492 118.197 128.102C120.699 131.711 121.95 135.977 121.95 140.898C121.95 148.855 119.038 155.233 113.214 160.032C107.431 164.831 99.7607 167.23 90.2041 167.23C81.2627 167.23 73.9414 164.872 68.2402 160.155C62.5801 155.438 59.75 149.204 59.75 141.452H77.5303C77.5303 144.815 78.7812 147.563 81.2832 149.696C83.8262 151.829 86.9434 152.896 90.6348 152.896C94.8594 152.896 98.1611 151.788 100.54 149.573C102.96 147.317 104.17 144.344 104.17 140.652C104.17 131.711 99.248 127.24 89.4043 127.24H79.9912V113.336ZM136.009 93.6484C136.009 88.1523 137.793 83.7021 141.361 80.2979C144.93 76.8525 149.605 75.1299 155.389 75.1299C161.254 75.1299 165.971 76.832 169.539 80.2363C173.107 83.5996 174.892 88.1729 174.892 93.9561V98.3857C174.892 103.923 173.107 108.373 169.539 111.736C165.971 115.1 161.295 116.781 155.512 116.781C149.688 116.781 144.971 115.1 141.361 111.736C137.793 108.332 136.009 103.759 136.009 98.0166V93.6484ZM147.821 98.3857C147.821 100.847 148.519 102.836 149.913 104.354C151.349 105.83 153.215 106.568 155.512 106.568C157.809 106.568 159.634 105.81 160.987 104.292C162.341 102.774 163.018 100.744 163.018 98.2012V93.6484C163.018 91.1875 162.341 89.1982 160.987 87.6807C159.634 86.1631 157.768 85.4043 155.389 85.4043C153.133 85.4043 151.308 86.1631 149.913 87.6807C148.519 89.1572 147.821 91.2285 147.821 93.8945V98.3857ZM178.829 144.036C178.829 138.499 180.634 134.049 184.243 130.686C187.853 127.281 192.528 125.579 198.271 125.579C204.095 125.579 208.791 127.261 212.359 130.624C215.969 133.946 217.773 138.54 217.773 144.405V148.835C217.773 154.331 216.01 158.781 212.482 162.186C208.955 165.549 204.259 167.23 198.394 167.23C192.487 167.23 187.75 165.528 184.182 162.124C180.613 158.72 178.829 154.208 178.829 148.589V144.036ZM190.642 148.835C190.642 151.091 191.38 153.019 192.856 154.618C194.333 156.218 196.179 157.018 198.394 157.018C203.397 157.018 205.899 154.249 205.899 148.712V144.036C205.899 141.575 205.202 139.606 203.808 138.13C202.413 136.612 200.567 135.854 198.271 135.854C195.974 135.854 194.128 136.612 192.733 138.13C191.339 139.606 190.642 141.637 190.642 144.221V148.835ZM159.019 159.294L150.344 154.618L194.087 84.6045L202.762 89.2803L159.019 159.294Z" fill="black" fill-opacity="0.1"/>
</g>
</svg>
