<svg width="251" height="243" viewBox="0 0 251 243" fill="none" xmlns="http://www.w3.org/2000/svg">
<rect width="251" height="243" rx="40" fill="#FFB110"/>
<path d="M179 141.39C179 173.821 152.36 200 119.549 200C86.7383 200 60 173.723 60 141.39C60 108.959 78.6091 44 119.451 44C160.391 44 179 108.959 179 141.39Z" fill="white"/>
<path d="M77.7275 138.167C78.3152 122.049 83.5061 97.4327 103.584 67.5416L96.5325 64.4158C96.5325 64.4158 70.2839 99.3864 69.7942 138.167H77.7275Z" fill="#D3D4D8"/>
<path d="M70.0881 146.567C70.4799 150.67 71.1655 154.87 72.2429 158.973H79.6865C79.6865 158.973 78.1194 154.382 77.6297 145.981L70.0881 146.567Z" fill="#D3D4D8"/>
</svg>
