<?xml version="1.0" encoding="utf-8"?>
<!-- Generator: Adobe Illustrator 24.1.3, SVG Export Plug-In . SVG Version: 6.00 Build 0)  -->
<svg version="1.1" id="Layer_1" xmlns="http://www.w3.org/2000/svg" xmlns:xlink="http://www.w3.org/1999/xlink" x="0px" y="0px"
	 viewBox="0 0 95 95" style="enable-background:new 0 0 95 95;" xml:space="preserve">
<style type="text/css">
	.st0{fill:#497603;}
	.st1{fill-rule:evenodd;clip-rule:evenodd;fill:#FFFFFF;}
</style>
<g>
	<circle class="st0" cx="47.5" cy="47.5" r="42.5"/>
</g>
<path class="st1" d="M48.2,80.9V53.5l21.2-5.1v9.3c-1.1,0.3-2.1,1-2.9,2c-1,1.3-1.6,3.1-1.6,5c0,1.9,0.6,3.7,1.6,5
	c0.8,1,1.7,1.7,2.9,2v4.2L48.2,80.9z"/>
<path class="st1" d="M46,53.5v27.4l-21.2-5.1v-4.2c1.1-0.3,2.1-1,2.9-2c1-1.3,1.6-3.1,1.6-5c0-1.9-0.6-3.7-1.6-5
	c-0.8-1-1.7-1.7-2.9-2v-9.3L46,53.5z"/>
<path class="st1" d="M67.2,63.8c0.1-1,0.5-1.9,1-2.6c0.6-0.8,1.4-1.3,2.2-1.5c0.1,0,0.3,0,0.4,0c0.9,0,1.8,0.5,2.5,1.3
	c0.7,0.9,1.2,2.2,1.2,3.6c0,1.4-0.4,2.7-1.2,3.6c-0.7,0.8-1.5,1.3-2.5,1.3c-0.1,0-0.3,0-0.4,0c-0.9-0.2-1.6-0.7-2.2-1.5
	c-0.5-0.7-0.9-1.6-1-2.6c0-0.3-0.1-0.6-0.1-0.8C67.1,64.3,67.1,64,67.2,63.8z"/>
<path class="st1" d="M26,61.2c0.5,0.7,0.9,1.6,1,2.6c0,0.3,0.1,0.6,0.1,0.8c0,0.3,0,0.6-0.1,0.8c-0.1,1-0.5,1.9-1,2.6
	c-0.6,0.8-1.4,1.3-2.2,1.5c-0.1,0-0.3,0-0.4,0c-0.9,0-1.8-0.5-2.5-1.3c-0.7-0.9-1.2-2.2-1.2-3.6c0-1.4,0.4-2.7,1.2-3.6
	c0.7-0.8,1.5-1.3,2.5-1.3c0.1,0,0.3,0,0.4,0C24.6,59.9,25.4,60.4,26,61.2z"/>
<path class="st1" d="M47.1,51.5l-11.1-2.7c0.1-0.2,0-0.5-0.1-0.7c-0.3-0.7-0.7-1.5-1-2.3c-0.3-0.8-0.6-1.6-0.9-2.5
	c-0.9-2.4-1.2-5.1-1.3-7.8c4.3,2.8,15.7,8.1,30.2,0c-0.1,2.7-0.4,5.5-1.3,7.9c-0.3,0.7-0.6,1.5-0.9,2.3c-0.3,0.7-0.6,1.4-0.9,2.1
	c-0.1,0.2-0.1,0.5-0.1,0.7L47.1,51.5z"/>
<path class="st1" d="M62.8,32.9c-16,9.8-28,1.6-30.2-0.1c0-1.1,0-2.2,0-3.3c0-0.8,0-1.7,0-2.5l14.7,5c0.2,0.1,0.5,0.1,0.7,0l14.7-5
	c0,0.8,0,1.7,0,2.5C62.8,30.6,62.8,31.7,62.8,32.9z"/>
<path class="st1" d="M47.7,29.7l-22.1-7.5l22.1-7.5l22.1,7.5L47.7,29.7z"/>
</svg>
