<svg width="252" height="243" viewBox="0 0 252 243" fill="none" xmlns="http://www.w3.org/2000/svg">
<rect width="252" height="243" rx="40" fill="#EE796F"/>
<path d="M100.274 46.5642C80.8008 53.5814 64.3155 68.5559 55.4853 87.2571C46.655 105.992 45.5806 128.219 52.5642 147.726C59.5478 167.199 74.5223 183.685 93.2571 192.515C111.992 201.345 134.219 202.419 153.726 195.436C173.199 188.452 189.685 173.478 198.515 154.743C207.345 136.008 208.419 113.781 201.436 94.2743C194.452 74.8008 179.478 58.3155 160.743 49.4853C142.008 40.655 119.781 39.5806 100.274 46.5642Z" fill="#FDD01D"/>
<path d="M105.242 60.3959C89.361 66.1037 75.9646 78.2914 68.7459 93.5344C61.5609 108.777 60.6879 126.908 66.3621 142.755C72.0699 158.636 84.2576 172.033 99.5006 179.251C114.744 186.436 132.874 187.309 148.722 181.602C164.603 175.894 177.999 163.706 185.218 148.463C192.403 133.22 193.276 115.09 187.601 99.2422C181.894 83.3612 169.706 69.9648 154.463 62.7462C139.22 55.5611 121.123 54.6882 105.242 60.3959Z" fill="#FFBC11"/>
<path d="M132.807 81.7833V86.2488C135.762 86.5509 138.28 87.1553 140.362 88.0618C142.477 88.9683 144.323 90.3449 145.901 92.1915C147.144 93.6017 148.084 95.0454 148.755 96.5227C149.46 98 149.796 99.3766 149.796 100.619C149.796 101.995 149.293 103.204 148.252 104.211C147.244 105.219 146.036 105.689 144.626 105.689C141.906 105.689 140.16 104.211 139.388 101.29C138.481 97.8321 136.299 95.549 132.807 94.4411V111.631C136.232 112.572 138.951 113.411 140.966 114.183C143.014 114.955 144.827 116.063 146.439 117.541C148.151 119.052 149.46 120.865 150.367 123.013C151.307 125.095 151.777 127.412 151.777 129.93C151.777 133.086 151.038 136.04 149.528 138.794C148.05 141.513 145.901 143.763 143.048 145.509C140.194 147.255 136.769 148.295 132.841 148.598V158.905C132.841 160.517 132.673 161.725 132.337 162.464C132.035 163.203 131.33 163.572 130.256 163.572C129.248 163.572 128.543 163.27 128.14 162.665C127.737 162.061 127.57 161.121 127.57 159.845V148.665C124.346 148.295 121.526 147.557 119.075 146.382C116.691 145.206 114.677 143.796 113.032 142.084C111.42 140.338 110.245 138.559 109.473 136.712C108.7 134.832 108.331 133.019 108.331 131.206C108.331 129.896 108.835 128.688 109.876 127.647C110.916 126.572 112.226 126.035 113.77 126.035C115.012 126.035 116.053 126.337 116.926 126.908C117.766 127.479 118.37 128.285 118.706 129.359C119.444 131.609 120.082 133.354 120.653 134.563C121.19 135.738 122.03 136.846 123.138 137.82C124.279 138.827 125.756 139.566 127.603 140.103V120.865C123.91 119.857 120.821 118.716 118.336 117.474C115.852 116.198 113.837 114.418 112.293 112.102C110.748 109.785 109.976 106.797 109.976 103.171C109.976 98.4365 111.487 94.5418 114.475 91.52C117.497 88.4983 121.862 86.7188 127.57 86.2152V81.8169C127.57 79.5002 128.442 78.3586 130.188 78.3586C131.934 78.3922 132.807 79.5338 132.807 81.7833ZM127.57 110.154V94.3068C125.253 95.0118 123.44 95.9184 122.164 97.0263C120.855 98.1679 120.217 99.8802 120.217 102.163C120.217 104.346 120.821 105.991 122.03 107.132C123.238 108.24 125.085 109.248 127.57 110.154ZM132.807 122.443V140.573C135.594 140.036 137.743 138.894 139.254 137.216C140.764 135.537 141.537 133.59 141.537 131.34C141.537 128.956 140.798 127.11 139.287 125.8C137.843 124.491 135.695 123.349 132.807 122.443Z" fill="#F9A705"/>
<path d="M129.786 81.7833V86.2488C132.74 86.5509 135.258 87.1553 137.34 88.0618C139.455 88.9683 141.302 90.3449 142.88 92.1915C144.122 93.6017 145.062 95.0454 145.734 96.5227C146.439 98 146.775 99.3766 146.775 100.619C146.775 101.995 146.271 103.204 145.23 104.211C144.223 105.219 143.014 105.689 141.604 105.689C138.918 105.689 137.139 104.211 136.366 101.29C135.46 97.8321 133.278 95.549 129.786 94.4411V111.631C133.21 112.572 135.93 113.411 137.944 114.183C139.993 114.955 141.806 116.063 143.417 117.541C145.13 119.052 146.439 120.865 147.345 123.013C148.286 125.095 148.756 127.412 148.756 129.93C148.756 133.086 148.017 136.04 146.506 138.794C145.029 141.513 142.88 143.763 140.026 145.509C137.172 147.255 133.748 148.295 129.819 148.598V158.905C129.819 160.517 129.651 161.725 129.316 162.464C129.014 163.203 128.308 163.572 127.234 163.572C126.227 163.572 125.555 163.27 125.119 162.665C124.749 162.061 124.548 161.121 124.548 159.845V148.665C121.325 148.295 118.505 147.557 116.054 146.382C113.67 145.206 111.655 143.796 110.01 142.084C108.398 140.338 107.223 138.559 106.451 136.712C105.679 134.832 105.31 133.019 105.31 131.206C105.31 129.896 105.813 128.688 106.854 127.647C107.895 126.572 109.204 126.035 110.749 126.035C111.991 126.035 113.032 126.337 113.905 126.908C114.744 127.479 115.348 128.285 115.684 129.359C116.423 131.609 117.061 133.354 117.632 134.563C118.169 135.738 119.008 136.846 120.116 137.82C121.258 138.827 122.735 139.566 124.582 140.103V120.865C120.888 119.857 117.799 118.716 115.315 117.474C112.83 116.198 110.816 114.418 109.271 112.102C107.727 109.785 106.955 106.797 106.955 103.171C106.955 98.4365 108.466 94.5418 111.454 91.52C114.476 88.4983 118.874 86.7188 124.582 86.2152V81.8169C124.582 79.5002 125.455 78.3586 127.2 78.3586C128.879 78.3922 129.786 79.5338 129.786 81.7833ZM124.514 110.154V94.3068C122.198 95.0118 120.385 95.9184 119.109 97.0263C117.799 98.1679 117.162 99.8802 117.162 102.163C117.162 104.346 117.766 105.991 118.975 107.132C120.183 108.24 122.03 109.248 124.514 110.154ZM129.786 122.443V140.573C132.572 140.036 134.721 138.894 136.232 137.216C137.743 135.537 138.515 133.59 138.515 131.34C138.515 128.956 137.777 127.11 136.266 125.8C134.788 124.491 132.64 123.349 129.786 122.443Z" fill="#FECE1F"/>
</svg>
