<svg width="201" height="149" viewBox="0 0 201 149" fill="none" xmlns="http://www.w3.org/2000/svg">
<g clip-path="url(#clip0)">
<path d="M13.5256 43.2958C11.5021 42.9412 9.40759 43.2249 7.52609 44.005C5.6446 44.7851 4.04711 46.0262 2.84012 47.5864C1.59762 49.1466 0.781128 50.9196 0.35513 52.7989C-0.638865 57.1249 0.497129 61.6283 2.94662 65.1387C5.3606 68.6137 8.91059 71.0959 12.7446 72.5497C17.111 74.2518 21.939 74.6773 26.554 73.8617C27.1575 73.7908 27.69 73.4717 28.045 72.9752C28.4 72.4788 28.542 71.876 28.4355 71.2732C28.329 70.6704 27.974 70.1385 27.477 69.8194C26.98 69.5002 26.341 69.3584 25.7375 69.5002C21.939 70.2094 17.9275 69.8194 14.3421 68.4365C11.2181 67.2308 8.41359 65.2451 6.6031 62.6566C4.82811 60.0681 4.01161 56.7703 4.68611 53.8627C4.97011 52.5861 5.5381 51.3805 6.3191 50.3877C7.1001 49.3948 8.12959 48.6147 9.23009 48.1537C10.3306 47.6928 11.6086 47.5509 12.7446 47.7282C13.8806 47.941 14.9811 48.4729 15.7976 49.2884C16.827 50.3522 17.395 51.9833 17.253 53.4726C17.111 54.9619 16.188 56.4512 14.9456 57.2668C14.4131 57.5859 14.0581 58.0823 13.9161 58.6851C13.7741 59.288 13.8806 59.8908 14.2356 60.4226C14.5551 60.9191 15.0876 61.2737 15.6911 61.3801C16.2945 61.4864 16.898 61.3446 17.395 60.99C19.809 59.3943 21.371 56.8058 21.6905 53.9691C22.01 51.0969 21.016 48.2601 18.9925 46.2035C17.5015 44.6078 15.5846 43.6504 13.5256 43.2958Z" fill="#F3858F"/>
<path d="M5.8576 44.8915C4.68611 45.6007 3.69211 46.5226 2.84012 47.5864C1.59762 49.1466 0.781128 50.9195 0.35513 52.7989C-0.638865 57.1249 0.497129 61.6283 2.94662 65.1387C5.36061 68.6137 8.91059 71.0959 12.7091 72.5497C17.0755 74.2518 21.9035 74.6773 26.5185 73.8617C26.625 73.8617 26.7315 73.8263 26.838 73.7908L24.9565 72.1951C22.1875 72.4079 19.4185 72.2306 16.685 71.6987C13.7031 71.0959 10.7921 70.0676 8.27159 68.401C5.7156 66.7344 3.55011 64.4295 2.27212 61.6992C0.852127 58.6851 0.568129 55.1747 1.42012 51.9833C2.16562 49.253 3.72761 46.7708 5.8576 44.8915Z" fill="#F36F79"/>
<path d="M23.0396 73.649C23.0751 59.7844 27.7965 45.9553 36.2455 34.9629C45.3689 23.0485 58.6459 14.6092 72.9878 10.1059C91.5897 4.25511 112.038 4.92884 130.498 11.2051C132.202 11.7725 133.87 12.4108 135.645 12.5526C136.248 12.588 136.852 12.588 137.455 12.5171C139.514 12.2335 141.36 11.1342 143.135 10.0704C148.567 6.80818 154.176 3.86506 159.962 1.20561C160.921 0.7801 161.844 0.354588 162.873 0.141832C163.903 -0.0709235 164.968 -0.0709235 165.926 0.319129C166.672 0.638263 167.346 1.24107 167.666 1.98572C167.914 2.58852 167.95 3.29771 167.879 3.97144C167.808 4.64516 167.595 5.28343 167.417 5.9217C166.388 9.7513 166.139 13.7582 165.962 17.7296C165.855 20.07 165.82 22.4812 166.849 24.5733C167.666 26.2399 169.121 27.481 170.506 28.7575C177.18 34.8565 183.108 42.1611 185.913 50.7777C186.09 51.3451 186.268 51.9124 186.516 52.4443C186.8 52.9762 187.155 53.4726 187.652 53.7563C188.256 54.1109 189.001 54.1818 189.676 54.1109C190.386 54.04 191.06 53.8981 191.735 53.8272C193.119 53.6854 194.575 53.9691 195.817 54.5719C197.06 55.2101 198.125 56.203 198.835 57.4086C199.651 58.8624 199.935 60.529 200.148 62.1602C200.823 67.6209 200.681 73.1525 200.894 78.6842C200.965 80.138 201.036 81.6273 200.894 83.0812C200.752 84.535 200.397 86.0243 199.616 87.2654C198.728 88.6837 197.308 89.783 195.675 90.1376C194.042 90.4567 192.374 90.0312 190.705 90.2439C189.676 90.3503 188.646 90.7404 187.936 91.5205C187.51 91.9814 187.226 92.5488 187.013 93.1161C186.8 93.7189 186.694 94.3218 186.552 94.9246C185.309 100.314 182.753 105.385 179.203 109.605C176.86 112.406 174.091 114.853 171.003 116.838C170.08 117.441 169.157 117.973 168.234 118.576C167.879 118.789 167.559 119.037 167.275 119.321C166.991 119.604 166.743 119.959 166.601 120.349C166.494 120.703 166.459 121.129 166.53 121.484C166.565 121.874 166.672 122.228 166.778 122.618C167.985 126.661 169.831 130.455 171.358 134.355C171.677 135.171 171.997 136.022 172.174 136.908C172.352 137.795 172.352 138.717 172.068 139.532C171.784 140.454 171.145 141.234 170.399 141.873C169.654 142.511 168.802 142.972 167.914 143.362C165.181 144.603 162.234 145.383 159.394 146.305C157.158 147.05 154.85 147.936 152.543 147.653C151.194 147.511 149.88 146.943 148.886 146.021C147.466 144.745 146.756 142.866 146.224 141.022C145.691 139.036 145.301 136.979 144.413 135.135C144.271 134.816 144.058 134.497 143.774 134.284C143.597 134.178 143.384 134.107 143.171 134.072C142.958 134.036 142.745 134.072 142.532 134.107C142.106 134.213 141.751 134.391 141.36 134.568C139.479 135.49 137.491 136.093 135.468 136.625C127.871 138.646 120.025 139.639 112.18 140.029C106.855 140.277 101.494 140.277 96.2047 139.639C91.0927 139 86.0872 137.795 81.1173 136.483C79.0938 135.951 77.0703 135.384 75.0823 134.781C73.9463 134.462 72.8458 134.107 71.6743 133.894C71.4258 133.859 71.1773 133.788 70.9288 133.788C70.6803 133.788 70.4318 133.823 70.2188 133.93C70.0058 134.036 69.8283 134.178 69.6863 134.355C69.5443 134.533 69.4378 134.745 69.3313 134.923C69.1538 135.348 69.1183 135.809 69.0473 136.235C68.7633 138.469 68.3373 140.738 67.7338 142.901C67.4498 143.965 67.0948 145.029 66.5268 145.986C65.9588 146.943 65.2133 147.794 64.2193 148.291C63.4384 148.681 62.5509 148.858 61.6634 148.858C60.7759 148.894 59.8884 148.752 59.0364 148.645C54.4924 147.972 49.9839 146.943 45.6529 145.312C44.9784 145.064 44.2684 144.78 43.6649 144.39C43.026 144 42.458 143.504 42.103 142.866C41.535 141.908 41.4995 140.738 41.535 139.603C41.677 136.341 42.6 133.114 43.6294 130.029C44.4459 127.618 45.3334 125.242 45.6529 122.725C45.7594 121.838 45.8304 120.916 45.5819 120.065C45.3689 119.214 44.9074 118.434 44.3394 117.76C43.7715 117.087 43.1325 116.484 42.4935 115.881C34.8965 108.754 28.897 99.8179 25.631 89.8893C24.1045 84.7477 23.1461 79.2161 23.0396 73.649Z" fill="#F3A0AA"/>
<path d="M103.624 23.3322C98.3702 23.1904 93.0807 24.2187 88.2882 26.3463C87.0102 26.9136 86.4067 28.4029 86.9747 29.6794C87.5427 30.956 89.0337 31.5588 90.3117 30.9914C94.4297 29.183 98.9737 28.2611 103.482 28.4029C106.961 28.5093 110.405 29.183 113.635 30.4241C114.274 30.6723 114.984 30.6368 115.588 30.3886C116.191 30.105 116.688 29.6085 116.937 28.9703C117.185 28.332 117.15 27.6228 116.901 27.02C116.617 26.4172 116.12 25.9208 115.481 25.6725C111.683 24.2542 107.671 23.4386 103.624 23.3322Z" fill="#84392B"/>
<path d="M158.933 44.5369C160.069 44.0405 161.382 43.9695 162.589 44.2887C163.796 44.6433 164.861 45.3879 165.571 46.4162C166.246 47.3736 166.601 48.5792 166.53 49.7849C166.459 50.955 166.033 52.1252 165.252 53.0471C164.471 53.9691 163.406 54.6073 162.234 54.8555C161.063 55.1038 159.82 54.9619 158.755 54.4655C157.797 54.04 157.016 53.2953 156.448 52.4088C155.88 51.5224 155.596 50.494 155.631 49.4303C155.667 48.4019 155.986 47.3382 156.554 46.4871C157.122 45.6361 157.974 44.9269 158.933 44.5369Z" fill="#85382E"/>
<path d="M24.5659 85.5988C24.9209 87.0881 25.3469 88.5774 25.8084 90.0312C29.0389 99.9598 35.0384 108.86 42.6708 116.023C43.3098 116.626 43.9488 117.228 44.5168 117.902C45.0848 118.576 45.5463 119.356 45.7593 120.207C45.9723 121.058 45.9368 121.98 45.8303 122.866C45.5108 125.384 44.6233 127.76 43.8068 130.171C42.7773 133.292 41.8543 136.483 41.7123 139.745C41.6413 140.844 41.7123 142.015 42.2803 143.007C42.6353 143.646 43.2033 144.142 43.8423 144.532C44.4813 144.922 45.1558 145.206 45.8303 145.454C50.1258 147.085 54.6343 148.114 59.2137 148.787C60.1012 148.929 60.9532 149.035 61.8407 149C62.7282 148.965 63.6157 148.823 64.3967 148.433C65.3907 147.936 66.1717 147.085 66.7042 146.128C67.2722 145.17 67.5917 144.107 67.9112 143.043C68.5147 140.844 68.9407 138.61 69.2247 136.376C69.2957 135.916 69.3312 135.455 69.5087 135.064C69.5797 134.852 69.7217 134.639 69.8637 134.497C70.0057 134.32 70.1832 134.178 70.3962 134.072C70.6092 133.965 70.8577 133.93 71.1062 133.93C71.3547 133.93 71.6032 133.965 71.8517 134.036C72.9877 134.249 74.1237 134.604 75.2597 134.923C77.2832 135.525 79.2711 136.057 81.2946 136.625C86.2646 137.972 91.2701 139.178 96.3821 139.781C101.672 140.419 107.032 140.419 112.357 140.171C120.202 139.781 128.048 138.788 135.645 136.767C137.668 136.235 139.656 135.632 141.538 134.71C141.928 134.533 142.283 134.32 142.709 134.249C142.922 134.213 143.135 134.178 143.348 134.213C143.561 134.249 143.774 134.32 143.952 134.426C144.236 134.639 144.413 134.958 144.591 135.277C145.478 137.121 145.869 139.178 146.401 141.163C146.898 143.007 147.644 144.887 149.064 146.199C150.058 147.121 151.371 147.653 152.72 147.83C155.063 148.114 157.371 147.227 159.572 146.482C162.412 145.525 165.358 144.78 168.092 143.539C168.979 143.149 169.831 142.688 170.577 142.05C171.322 141.412 171.926 140.632 172.245 139.71C172.529 138.859 172.494 137.937 172.352 137.086C172.174 136.199 171.855 135.384 171.535 134.533C170.009 130.632 168.163 126.802 166.956 122.796C166.849 122.406 166.743 122.051 166.707 121.661C166.672 121.271 166.672 120.881 166.778 120.526C166.92 120.136 167.133 119.782 167.453 119.498C167.737 119.214 168.092 118.966 168.411 118.753C169.299 118.15 170.257 117.583 171.18 117.016C174.233 115.03 177.038 112.583 179.381 109.782C182.931 105.527 185.451 100.456 186.729 95.1019C186.8 94.7827 186.907 94.4991 186.978 94.1799C173.488 107.158 156.661 116.661 138.591 121.519C119.705 126.59 99.4705 126.554 80.5846 121.413C58.8232 115.385 39.0853 102.726 24.5659 85.5988Z" fill="#F3858F"/>
<path d="M148.034 14.5738C149.632 12.7299 151.691 11.347 153.714 9.99953C155.489 8.86483 157.3 7.73013 159.252 6.98548C159.607 6.84365 159.927 6.73727 160.282 6.70181C160.637 6.66635 161.027 6.70181 161.347 6.87911C161.631 7.0564 161.844 7.30462 161.986 7.58829C162.128 7.87197 162.199 8.1911 162.27 8.51023C162.731 10.9215 162.092 13.3682 161.595 15.7439C161.453 16.3822 161.311 17.0559 161.098 17.6942C160.885 18.3325 160.566 18.9353 160.104 19.3962C159.714 19.8218 159.181 20.1054 158.649 20.3182C158.116 20.5309 157.513 20.6373 156.945 20.6373C154.85 20.7437 152.827 19.999 150.768 19.5026C149.987 19.3253 149.17 19.1835 148.425 18.7934C148.07 18.6161 147.715 18.3679 147.466 18.0488C147.218 17.7297 147.005 17.3751 146.969 16.9495C146.898 16.4886 147.04 16.0276 147.218 15.6021C147.431 15.283 147.715 14.9284 148.034 14.5738Z" fill="#ED7483"/>
<path d="M192.019 62.2665C192.693 64.1104 193.048 66.0252 193.297 67.94C193.368 68.3655 193.403 68.7911 193.51 69.2166C193.616 69.6421 193.829 70.0321 194.113 70.3513C194.362 70.5995 194.646 70.7768 194.965 70.8477C195.285 70.9541 195.64 70.9541 195.959 70.9186C196.634 70.8122 197.237 70.4222 197.663 69.8903C198.018 69.4648 198.231 68.9329 198.373 68.4365C198.515 67.9046 198.586 67.3727 198.622 66.8053C198.799 64.5005 198.55 62.1247 197.592 59.9971C197.131 58.9334 196.492 57.9405 195.64 57.1959C194.788 56.4157 193.687 55.9193 192.516 55.8484C192.019 55.8129 191.522 55.8839 191.096 56.0966C190.67 56.3094 190.279 56.664 190.137 57.1249C189.995 57.5859 190.066 58.0823 190.244 58.5433C190.421 59.0043 190.67 59.4298 190.883 59.8553C191.38 60.6709 191.735 61.451 192.019 62.2665Z" fill="#F6BAC1"/>
<path d="M112.534 24.7151C112.534 24.7861 112.57 24.857 112.57 24.9634C112.534 25.3534 112.392 25.7435 112.179 26.098C111.789 26.6654 111.185 27.02 110.546 27.1973C109.907 27.3746 109.233 27.41 108.558 27.41C105.896 27.4455 103.269 27.1264 100.642 27.1618C97.3405 27.2327 94.039 27.871 91.0925 29.3603C90.0985 29.8567 89.1755 30.4595 88.217 31.0269C88.8915 31.346 89.637 31.346 90.3115 31.0623C94.4295 29.2539 98.9735 28.332 103.482 28.4738C106.961 28.5802 110.404 29.2539 113.635 30.495C114.274 30.7432 114.948 30.7078 115.587 30.4595C116.191 30.1759 116.688 29.6794 116.936 29.0412C117.185 28.4029 117.149 27.7292 116.901 27.0909C116.617 26.4881 116.12 25.9917 115.481 25.7435C114.487 25.3534 113.528 24.9988 112.534 24.7151Z" fill="#752F27"/>
<path d="M164.045 44.9624C164.506 46.0971 164.648 47.3736 164.364 48.5792C164.116 49.5721 163.619 50.5295 162.873 51.2741C162.163 52.0188 161.205 52.5507 160.211 52.8344C159.217 53.118 158.116 53.0826 157.122 52.7989C156.945 52.7634 156.767 52.6925 156.625 52.6216C157.158 53.4017 157.903 54.04 158.791 54.4655C159.856 54.9619 161.098 55.1038 162.27 54.8555C163.441 54.6073 164.506 53.9691 165.287 53.0471C166.068 52.1252 166.494 50.9905 166.565 49.7849C166.636 48.6147 166.281 47.4091 165.607 46.4162C165.145 45.8489 164.648 45.3524 164.045 44.9624Z" fill="#752F27"/>
<path d="M160.317 6.7018C160.175 6.73726 160.033 6.73726 159.891 6.80818C160.246 8.54569 160.069 10.3896 159.323 12.0207C158.4 13.971 156.732 15.5312 154.815 16.4886C152.436 17.6587 149.632 17.9069 147.041 17.2687C147.112 17.5878 147.254 17.9069 147.467 18.1552C147.715 18.4743 148.07 18.7225 148.425 18.8998C149.135 19.2544 149.952 19.3962 150.768 19.609C152.827 20.07 154.85 20.8501 156.945 20.7437C157.513 20.7082 158.116 20.6018 158.649 20.3891C159.181 20.1763 159.714 19.8927 160.104 19.4672C160.566 19.0062 160.885 18.3679 161.098 17.7651C161.311 17.1268 161.453 16.4886 161.595 15.8148C162.128 13.4391 162.731 10.9569 162.27 8.58114C162.199 8.26201 162.128 7.94288 161.986 7.6592C161.844 7.37553 161.631 7.09185 161.347 6.95002C161.027 6.7018 160.672 6.66634 160.317 6.7018Z" fill="#ED6171"/>
</g>
<defs>
<clipPath id="clip0">
<rect width="201" height="149" fill="white"/>
</clipPath>
</defs>
</svg>
