<svg width="252" height="243" viewBox="0 0 252 243" fill="none" xmlns="http://www.w3.org/2000/svg">
<rect opacity="0.5" width="252" height="243" rx="40" fill="#EE796F"/>
<g filter="url(#filter0_d)">
<path d="M66.96 138.499C66.96 132.757 67.6572 128.184 69.0518 124.779C70.4463 121.375 72.9893 118.032 76.6807 114.751C80.4131 111.429 82.8945 108.742 84.125 106.691C85.3555 104.6 85.9707 102.405 85.9707 100.108C85.9707 93.1768 82.7715 89.7109 76.373 89.7109C73.3379 89.7109 70.8975 90.6543 69.0518 92.541C67.2471 94.3867 66.3037 96.9502 66.2217 100.231H48.3799C48.4619 92.3975 50.9844 86.2656 55.9473 81.8359C60.9512 77.4062 67.7598 75.1914 76.373 75.1914C85.0684 75.1914 91.8154 77.3037 96.6143 81.5283C101.413 85.7119 103.812 91.6387 103.812 99.3086C103.812 102.795 103.033 106.097 101.475 109.214C99.916 112.29 97.1885 115.715 93.292 119.488L88.3086 124.226C85.1914 127.22 83.4072 130.727 82.9561 134.746L82.71 138.499H66.96ZM65.1758 157.387C65.1758 154.639 66.0986 152.383 67.9443 150.619C69.8311 148.814 72.2305 147.912 75.1426 147.912C78.0547 147.912 80.4336 148.814 82.2793 150.619C84.166 152.383 85.1094 154.639 85.1094 157.387C85.1094 160.094 84.1865 162.329 82.3408 164.093C80.5361 165.856 78.1367 166.738 75.1426 166.738C72.1484 166.738 69.7285 165.856 67.8828 164.093C66.0781 162.329 65.1758 160.094 65.1758 157.387ZM116.21 93.6484C116.21 88.1523 117.994 83.7021 121.562 80.2979C125.131 76.8525 129.807 75.1299 135.59 75.1299C141.455 75.1299 146.172 76.832 149.74 80.2363C153.309 83.5996 155.093 88.1729 155.093 93.9561V98.3857C155.093 103.923 153.309 108.373 149.74 111.736C146.172 115.1 141.496 116.781 135.713 116.781C129.889 116.781 125.172 115.1 121.562 111.736C117.994 108.332 116.21 103.759 116.21 98.0166V93.6484ZM128.022 98.3857C128.022 100.847 128.72 102.836 130.114 104.354C131.55 105.83 133.416 106.568 135.713 106.568C138.01 106.568 139.835 105.81 141.188 104.292C142.542 102.774 143.219 100.744 143.219 98.2012V93.6484C143.219 91.1875 142.542 89.1982 141.188 87.6807C139.835 86.1631 137.969 85.4043 135.59 85.4043C133.334 85.4043 131.509 86.1631 130.114 87.6807C128.72 89.1572 128.022 91.2285 128.022 93.8945V98.3857ZM159.03 144.036C159.03 138.499 160.835 134.049 164.444 130.686C168.054 127.281 172.729 125.579 178.472 125.579C184.296 125.579 188.992 127.261 192.561 130.624C196.17 133.946 197.975 138.54 197.975 144.405V148.835C197.975 154.331 196.211 158.781 192.684 162.186C189.156 165.549 184.46 167.23 178.595 167.23C172.688 167.23 167.951 165.528 164.383 162.124C160.814 158.72 159.03 154.208 159.03 148.589V144.036ZM170.843 148.835C170.843 151.091 171.581 153.019 173.058 154.618C174.534 156.218 176.38 157.018 178.595 157.018C183.599 157.018 186.101 154.249 186.101 148.712V144.036C186.101 141.575 185.403 139.606 184.009 138.13C182.614 136.612 180.769 135.854 178.472 135.854C176.175 135.854 174.329 136.612 172.935 138.13C171.54 139.606 170.843 141.637 170.843 144.221V148.835ZM139.22 159.294L130.545 154.618L174.288 84.6045L182.963 89.2803L139.22 159.294Z" fill="black" fill-opacity="0.1"/>
</g>
<defs>
<filter id="filter0_d" x="44.3799" y="75.1299" width="157.595" height="100.101" filterUnits="userSpaceOnUse" color-interpolation-filters="sRGB">
<feFlood flood-opacity="0" result="BackgroundImageFix"/>
<feColorMatrix in="SourceAlpha" type="matrix" values="0 0 0 0 0 0 0 0 0 0 0 0 0 0 0 0 0 0 127 0"/>
<feOffset dy="4"/>
<feGaussianBlur stdDeviation="2"/>
<feColorMatrix type="matrix" values="0 0 0 0 0 0 0 0 0 0 0 0 0 0 0 0 0 0 0.25 0"/>
<feBlend mode="normal" in2="BackgroundImageFix" result="effect1_dropShadow"/>
<feBlend mode="normal" in="SourceGraphic" in2="effect1_dropShadow" result="shape"/>
</filter>
</defs>
</svg>
