<svg width="251" height="243" viewBox="0 0 251 243" fill="none" xmlns="http://www.w3.org/2000/svg">
<rect width="251" height="243" rx="40" fill="#56C2F6"/>
<g clip-path="url(#clip0)">
<path d="M38.5256 90.2958C36.5021 89.9412 34.4076 90.2249 32.5261 91.005C30.6446 91.7851 29.0471 93.0262 27.8401 94.5864C26.5976 96.1466 25.7811 97.9196 25.3551 99.7989C24.3611 104.125 25.4971 108.628 27.9466 112.139C30.3606 115.614 33.9106 118.096 37.7446 119.55C42.111 121.252 46.939 121.677 51.554 120.862C52.1575 120.791 52.69 120.472 53.045 119.975C53.4 119.479 53.542 118.876 53.4355 118.273C53.329 117.67 52.974 117.138 52.477 116.819C51.98 116.5 51.341 116.358 50.7375 116.5C46.939 117.209 42.9275 116.819 39.3421 115.436C36.2181 114.231 33.4136 112.245 31.6031 109.657C29.8281 107.068 29.0116 103.77 29.6861 100.863C29.9701 99.5861 30.5381 98.3805 31.3191 97.3877C32.1001 96.3948 33.1296 95.6147 34.2301 95.1537C35.3306 94.6928 36.6086 94.5509 37.7446 94.7282C38.8806 94.941 39.9811 95.4729 40.7976 96.2884C41.827 97.3522 42.395 98.9833 42.253 100.473C42.111 101.962 41.188 103.451 39.9456 104.267C39.4131 104.586 39.0581 105.082 38.9161 105.685C38.7741 106.288 38.8806 106.891 39.2356 107.423C39.5551 107.919 40.0876 108.274 40.6911 108.38C41.2945 108.486 41.898 108.345 42.395 107.99C44.809 106.394 46.371 103.806 46.6905 100.969C47.01 98.0969 46.016 95.2601 43.9925 93.2035C42.5015 91.6078 40.5846 90.6504 38.5256 90.2958Z" fill="#F3858F"/>
<path d="M30.8576 91.8915C29.6861 92.6007 28.6921 93.5226 27.8401 94.5864C26.5976 96.1466 25.7811 97.9195 25.3551 99.7989C24.3611 104.125 25.4971 108.628 27.9466 112.139C30.3606 115.614 33.9106 118.096 37.7091 119.55C42.0755 121.252 46.9035 121.677 51.5185 120.862C51.625 120.862 51.7315 120.826 51.838 120.791L49.9565 119.195C47.1875 119.408 44.4185 119.231 41.685 118.699C38.7031 118.096 35.7921 117.068 33.2716 115.401C30.7156 113.734 28.5501 111.43 27.2721 108.699C25.8521 105.685 25.5681 102.175 26.4201 98.9833C27.1656 96.253 28.7276 93.7708 30.8576 91.8915Z" fill="#F36F79"/>
<path d="M48.0396 120.649C48.0751 106.784 52.7965 92.9553 61.2455 81.9629C70.3689 70.0485 83.6459 61.6092 97.9878 57.1059C116.59 51.2551 137.038 51.9288 155.498 58.2051C157.202 58.7725 158.87 59.4108 160.645 59.5526C161.248 59.588 161.852 59.588 162.455 59.5171C164.514 59.2335 166.36 58.1342 168.135 57.0704C173.567 53.8082 179.176 50.8651 184.962 48.2056C185.921 47.7801 186.844 47.3546 187.873 47.1418C188.903 46.9291 189.968 46.9291 190.926 47.3191C191.672 47.6383 192.346 48.2411 192.666 48.9857C192.914 49.5885 192.95 50.2977 192.879 50.9714C192.808 51.6452 192.595 52.2834 192.417 52.9217C191.388 56.7513 191.139 60.7582 190.962 64.7296C190.855 67.07 190.82 69.4812 191.849 71.5733C192.666 73.2399 194.121 74.481 195.506 75.7575C202.18 81.8565 208.108 89.1611 210.913 97.7777C211.09 98.3451 211.268 98.9124 211.516 99.4443C211.8 99.9762 212.155 100.473 212.652 100.756C213.256 101.111 214.001 101.182 214.676 101.111C215.386 101.04 216.06 100.898 216.735 100.827C218.119 100.685 219.575 100.969 220.817 101.572C222.06 102.21 223.125 103.203 223.835 104.409C224.651 105.862 224.935 107.529 225.148 109.16C225.823 114.621 225.681 120.153 225.894 125.684C225.965 127.138 226.036 128.627 225.894 130.081C225.752 131.535 225.397 133.024 224.616 134.265C223.728 135.684 222.308 136.783 220.675 137.138C219.042 137.457 217.374 137.031 215.705 137.244C214.676 137.35 213.646 137.74 212.936 138.52C212.51 138.981 212.226 139.549 212.013 140.116C211.8 140.719 211.694 141.322 211.552 141.925C210.309 147.314 207.753 152.385 204.203 156.605C201.86 159.406 199.091 161.853 196.003 163.838C195.08 164.441 194.157 164.973 193.234 165.576C192.879 165.789 192.559 166.037 192.275 166.321C191.991 166.604 191.743 166.959 191.601 167.349C191.494 167.703 191.459 168.129 191.53 168.484C191.565 168.874 191.672 169.228 191.778 169.618C192.985 173.661 194.831 177.455 196.358 181.355C196.677 182.171 196.997 183.022 197.174 183.908C197.352 184.795 197.352 185.717 197.068 186.532C196.784 187.454 196.145 188.234 195.399 188.873C194.654 189.511 193.802 189.972 192.914 190.362C190.181 191.603 187.234 192.383 184.394 193.305C182.158 194.05 179.85 194.936 177.543 194.653C176.194 194.511 174.88 193.943 173.886 193.021C172.466 191.745 171.756 189.866 171.224 188.022C170.691 186.036 170.301 183.979 169.413 182.135C169.271 181.816 169.058 181.497 168.774 181.284C168.597 181.178 168.384 181.107 168.171 181.072C167.958 181.036 167.745 181.072 167.532 181.107C167.106 181.213 166.751 181.391 166.36 181.568C164.479 182.49 162.491 183.093 160.468 183.625C152.871 185.646 145.025 186.639 137.18 187.029C131.855 187.277 126.494 187.277 121.205 186.639C116.093 186 111.087 184.795 106.117 183.483C104.094 182.951 102.07 182.384 100.082 181.781C98.9463 181.462 97.8458 181.107 96.6743 180.894C96.4258 180.859 96.1773 180.788 95.9288 180.788C95.6803 180.788 95.4318 180.823 95.2188 180.93C95.0058 181.036 94.8283 181.178 94.6863 181.355C94.5443 181.533 94.4378 181.745 94.3313 181.923C94.1538 182.348 94.1183 182.809 94.0473 183.235C93.7633 185.469 93.3373 187.738 92.7338 189.901C92.4498 190.965 92.0948 192.029 91.5268 192.986C90.9588 193.943 90.2133 194.794 89.2193 195.291C88.4384 195.681 87.5509 195.858 86.6634 195.858C85.7759 195.894 84.8884 195.752 84.0364 195.645C79.4924 194.972 74.9839 193.943 70.6529 192.312C69.9784 192.064 69.2684 191.78 68.6649 191.39C68.026 191 67.458 190.504 67.103 189.866C66.535 188.908 66.4995 187.738 66.535 186.603C66.677 183.341 67.6 180.114 68.6294 177.029C69.4459 174.618 70.3334 172.242 70.6529 169.725C70.7594 168.838 70.8304 167.916 70.5819 167.065C70.3689 166.214 69.9074 165.434 69.3394 164.76C68.7715 164.087 68.1325 163.484 67.4935 162.881C59.8965 155.754 53.897 146.818 50.631 136.889C49.1045 131.748 48.1461 126.216 48.0396 120.649Z" fill="#F3A0AA"/>
<path d="M128.624 70.3322C123.37 70.1904 118.081 71.2187 113.288 73.3463C112.01 73.9136 111.407 75.4029 111.975 76.6794C112.543 77.956 114.034 78.5588 115.312 77.9914C119.43 76.183 123.974 75.2611 128.482 75.4029C131.961 75.5093 135.405 76.183 138.635 77.4241C139.274 77.6723 139.984 77.6368 140.588 77.3886C141.191 77.105 141.688 76.6085 141.937 75.9703C142.185 75.332 142.15 74.6228 141.901 74.02C141.617 73.4172 141.12 72.9208 140.481 72.6725C136.683 71.2542 132.671 70.4386 128.624 70.3322Z" fill="#84392B"/>
<path d="M183.933 91.5369C185.069 91.0405 186.382 90.9695 187.589 91.2887C188.796 91.6433 189.861 92.3879 190.571 93.4162C191.246 94.3736 191.601 95.5792 191.53 96.7849C191.459 97.955 191.033 99.1252 190.252 100.047C189.471 100.969 188.406 101.607 187.234 101.856C186.063 102.104 184.82 101.962 183.755 101.465C182.797 101.04 182.016 100.295 181.448 99.4088C180.88 98.5224 180.596 97.494 180.631 96.4303C180.667 95.4019 180.986 94.3382 181.554 93.4871C182.122 92.6361 182.974 91.9269 183.933 91.5369Z" fill="#85382E"/>
<path d="M49.5659 132.599C49.9209 134.088 50.3469 135.577 50.8084 137.031C54.0389 146.96 60.0384 155.86 67.6708 163.023C68.3098 163.626 68.9488 164.228 69.5168 164.902C70.0848 165.576 70.5463 166.356 70.7593 167.207C70.9723 168.058 70.9368 168.98 70.8303 169.866C70.5108 172.384 69.6233 174.76 68.8068 177.171C67.7773 180.292 66.8543 183.483 66.7123 186.745C66.6413 187.844 66.7123 189.015 67.2803 190.007C67.6353 190.646 68.2033 191.142 68.8423 191.532C69.4813 191.922 70.1558 192.206 70.8303 192.454C75.1258 194.085 79.6343 195.114 84.2137 195.787C85.1012 195.929 85.9532 196.035 86.8407 196C87.7282 195.965 88.6157 195.823 89.3967 195.433C90.3907 194.936 91.1717 194.085 91.7042 193.128C92.2722 192.17 92.5917 191.107 92.9112 190.043C93.5147 187.844 93.9407 185.61 94.2247 183.376C94.2957 182.916 94.3312 182.455 94.5087 182.064C94.5797 181.852 94.7217 181.639 94.8637 181.497C95.0057 181.32 95.1832 181.178 95.3962 181.072C95.6092 180.965 95.8577 180.93 96.1062 180.93C96.3547 180.93 96.6032 180.965 96.8517 181.036C97.9877 181.249 99.1237 181.604 100.26 181.923C102.283 182.525 104.271 183.057 106.295 183.625C111.265 184.972 116.27 186.178 121.382 186.781C126.672 187.419 132.032 187.419 137.357 187.171C145.202 186.781 153.048 185.788 160.645 183.767C162.668 183.235 164.656 182.632 166.538 181.71C166.928 181.533 167.283 181.32 167.709 181.249C167.922 181.213 168.135 181.178 168.348 181.213C168.561 181.249 168.774 181.32 168.952 181.426C169.236 181.639 169.413 181.958 169.591 182.277C170.478 184.121 170.869 186.178 171.401 188.163C171.898 190.007 172.644 191.887 174.064 193.199C175.058 194.121 176.371 194.653 177.72 194.83C180.063 195.114 182.371 194.227 184.572 193.482C187.412 192.525 190.358 191.78 193.092 190.539C193.979 190.149 194.831 189.688 195.577 189.05C196.322 188.412 196.926 187.632 197.245 186.71C197.529 185.859 197.494 184.937 197.352 184.086C197.174 183.199 196.855 182.384 196.535 181.533C195.009 177.632 193.163 173.802 191.956 169.796C191.849 169.406 191.743 169.051 191.707 168.661C191.672 168.271 191.672 167.881 191.778 167.526C191.92 167.136 192.133 166.782 192.453 166.498C192.737 166.214 193.092 165.966 193.411 165.753C194.299 165.15 195.257 164.583 196.18 164.016C199.233 162.03 202.038 159.583 204.381 156.782C207.931 152.527 210.451 147.456 211.729 142.102C211.8 141.783 211.907 141.499 211.978 141.18C198.488 154.158 181.661 163.661 163.591 168.519C144.705 173.59 124.471 173.554 105.585 168.413C83.8232 162.385 64.0853 149.726 49.5659 132.599Z" fill="#F3858F"/>
<path d="M173.034 61.5738C174.632 59.7299 176.691 58.347 178.714 56.9995C180.489 55.8648 182.3 54.7301 184.252 53.9855C184.607 53.8436 184.927 53.7373 185.282 53.7018C185.637 53.6664 186.027 53.7018 186.347 53.8791C186.631 54.0564 186.844 54.3046 186.986 54.5883C187.128 54.872 187.199 55.1911 187.27 55.5102C187.731 57.9215 187.092 60.3682 186.595 62.7439C186.453 63.3822 186.311 64.0559 186.098 64.6942C185.885 65.3325 185.566 65.9353 185.104 66.3962C184.714 66.8218 184.181 67.1054 183.649 67.3182C183.116 67.5309 182.513 67.6373 181.945 67.6373C179.85 67.7437 177.827 66.999 175.768 66.5026C174.987 66.3253 174.17 66.1835 173.425 65.7934C173.07 65.6161 172.715 65.3679 172.466 65.0488C172.218 64.7297 172.005 64.3751 171.969 63.9495C171.898 63.4886 172.04 63.0276 172.218 62.6021C172.431 62.283 172.715 61.9284 173.034 61.5738Z" fill="#ED7483"/>
<path d="M217.019 109.267C217.693 111.11 218.048 113.025 218.297 114.94C218.368 115.366 218.403 115.791 218.51 116.217C218.616 116.642 218.829 117.032 219.113 117.351C219.362 117.599 219.646 117.777 219.965 117.848C220.285 117.954 220.64 117.954 220.959 117.919C221.634 117.812 222.237 117.422 222.663 116.89C223.018 116.465 223.231 115.933 223.373 115.436C223.515 114.905 223.586 114.373 223.622 113.805C223.799 111.5 223.55 109.125 222.592 106.997C222.131 105.933 221.492 104.94 220.64 104.196C219.788 103.416 218.687 102.919 217.516 102.848C217.019 102.813 216.522 102.884 216.096 103.097C215.67 103.309 215.279 103.664 215.137 104.125C214.995 104.586 215.066 105.082 215.244 105.543C215.421 106.004 215.67 106.43 215.883 106.855C216.38 107.671 216.735 108.451 217.019 109.267Z" fill="#F6BAC1"/>
<path d="M137.534 71.7151C137.534 71.7861 137.57 71.857 137.57 71.9634C137.534 72.3534 137.392 72.7435 137.179 73.098C136.789 73.6654 136.185 74.02 135.546 74.1973C134.907 74.3746 134.233 74.41 133.558 74.41C130.896 74.4455 128.269 74.1264 125.642 74.1618C122.34 74.2327 119.039 74.871 116.093 76.3603C115.099 76.8567 114.176 77.4595 113.217 78.0269C113.892 78.346 114.637 78.346 115.312 78.0623C119.43 76.2539 123.973 75.332 128.482 75.4738C131.961 75.5802 135.404 76.2539 138.635 77.495C139.274 77.7432 139.948 77.7078 140.587 77.4595C141.191 77.1759 141.688 76.6794 141.936 76.0412C142.185 75.4029 142.149 74.7292 141.901 74.0909C141.617 73.4881 141.12 72.9917 140.481 72.7435C139.487 72.3534 138.528 71.9988 137.534 71.7151Z" fill="#752F27"/>
<path d="M189.045 91.9624C189.506 93.0971 189.648 94.3736 189.364 95.5792C189.116 96.5721 188.619 97.5295 187.873 98.2741C187.163 99.0188 186.205 99.5507 185.211 99.8344C184.217 100.118 183.116 100.083 182.122 99.7989C181.945 99.7634 181.767 99.6925 181.625 99.6216C182.158 100.402 182.903 101.04 183.791 101.465C184.856 101.962 186.098 102.104 187.27 101.856C188.441 101.607 189.506 100.969 190.287 100.047C191.068 99.1252 191.494 97.9905 191.565 96.7849C191.636 95.6147 191.281 94.4091 190.607 93.4162C190.145 92.8489 189.648 92.3524 189.045 91.9624Z" fill="#752F27"/>
<path d="M185.317 53.7018C185.175 53.7373 185.033 53.7373 184.891 53.8082C185.246 55.5457 185.069 57.3896 184.323 59.0207C183.4 60.971 181.732 62.5312 179.815 63.4886C177.436 64.6587 174.632 64.9069 172.041 64.2687C172.112 64.5878 172.254 64.9069 172.467 65.1552C172.715 65.4743 173.07 65.7225 173.425 65.8998C174.135 66.2544 174.952 66.3962 175.768 66.609C177.827 67.07 179.85 67.8501 181.945 67.7437C182.513 67.7082 183.116 67.6018 183.649 67.3891C184.181 67.1763 184.714 66.8927 185.104 66.4672C185.566 66.0062 185.885 65.3679 186.098 64.7651C186.311 64.1268 186.453 63.4886 186.595 62.8148C187.128 60.4391 187.731 57.9569 187.27 55.5811C187.199 55.262 187.128 54.9429 186.986 54.6592C186.844 54.3755 186.631 54.0919 186.347 53.95C186.027 53.7018 185.672 53.6663 185.317 53.7018Z" fill="#ED6171"/>
</g>
<defs>
<clipPath id="clip0">
<rect width="201" height="149" fill="white" transform="translate(25 47)"/>
</clipPath>
</defs>
</svg>
