<?xml version="1.0" encoding="utf-8"?>
<!-- Generator: Adobe Illustrator 24.1.3, SVG Export Plug-In . SVG Version: 6.00 Build 0)  -->
<svg version="1.1" id="Layer_1" xmlns="http://www.w3.org/2000/svg" xmlns:xlink="http://www.w3.org/1999/xlink" x="0px" y="0px"
	 viewBox="0 0 95 95" style="enable-background:new 0 0 95 95;" xml:space="preserve">
<style type="text/css">
	.st0{fill:#497603;}
	.st1{fill:#FFFFFF;}
</style>
<g>
	<circle class="st0" cx="47.5" cy="47.5" r="42.5"/>
</g>
<path class="st1" d="M70.2,44.3v25.5c0,1.4-0.6,2.7-1.5,3.7c-1,0.9-2.3,1.5-3.7,1.5h-3.4c-0.5,0-1-0.4-1-0.9V57.9
	c0-0.2-0.1-0.3-0.2-0.5c-0.1-0.1-0.3-0.2-0.5-0.2h-9.7c-0.2,0-0.3,0.1-0.5,0.2c-0.1,0.1-0.2,0.3-0.2,0.5v16.2c0,0.5-0.4,0.9-1,0.9
	H29.2c-1.4,0-2.7-0.6-3.7-1.5c-0.9-0.9-1.5-2.2-1.5-3.7V44.3c0.3-0.2,0.6-0.4,0.8-0.6c0,0,0.1-0.1,0.2-0.2c0,0,0.1,0.1,0.2,0.2
	c1,0.9,2.2,1.4,3.5,1.4s2.5-0.5,3.5-1.4c0,0,0.1-0.1,0.2-0.2c0,0,0.1,0.1,0.2,0.2c1,0.9,2.2,1.4,3.5,1.4s2.5-0.5,3.5-1.4
	c0,0,0.1-0.1,0.2-0.2c0,0,0.1,0.1,0.2,0.2c1,0.9,2.2,1.4,3.5,1.4s2.5-0.5,3.5-1.4c0,0,0.1-0.1,0.2-0.2c0,0,0.1,0.1,0.2,0.2
	c1,0.9,2.2,1.4,3.5,1.4s2.5-0.5,3.5-1.4c0,0,0.1-0.1,0.2-0.2c0,0,0.1,0.1,0.2,0.2c1,0.9,2.2,1.4,3.5,1.4s2.5-0.5,3.5-1.4
	c0,0,0.1-0.1,0.2-0.2c0,0,0.1,0.1,0.2,0.2c1,0.9,2.2,1.4,3.5,1.4s2.5-0.5,3.5-1.4c0,0,0.1-0.1,0.2-0.2c0,0,0.1,0.1,0.2,0.2
	C69.6,43.9,69.9,44.1,70.2,44.3z M39.4,57.3h-5.7c-0.6,0-1.2,0.2-1.6,0.6c-0.4,0.4-0.6,0.9-0.6,1.6v5.7c0,0.6,0.2,1.2,0.6,1.6
	c0.4,0.4,1,0.6,1.6,0.6h5.7c0.6,0,1.2-0.2,1.6-0.6c0.4-0.4,0.6-0.9,0.6-1.6v-5.7c0-0.6-0.2-1.2-0.6-1.6C40.5,57.5,40,57.3,39.4,57.3
	z"/>
<path class="st1" d="M16.7,40.2c-0.1-0.3-0.1-0.6,0-0.8l7.7-13.9l0.8,0.5l-0.8-0.5c0.2-0.3,0.5-0.5,0.8-0.5h43.5
	c0.4,0,0.7,0.2,0.9,0.5l7.7,13.8c0.1,0.3,0.1,0.6,0,0.8c-0.3,1.1-0.9,2.1-1.7,2.8c-0.8,0.7-1.8,1.2-2.9,1.2s-2.1-0.4-2.9-1.2
	c-0.3-0.3-0.6-0.6-0.8-0.9c-0.2,0.3-0.5,0.7-0.8,0.9c-0.8,0.7-1.8,1.2-2.9,1.2s-2.1-0.4-2.9-1.2c-0.3-0.3-0.6-0.6-0.8-0.9
	c-0.2,0.3-0.5,0.7-0.8,0.9c-0.8,0.7-1.8,1.2-2.9,1.2c-1.1,0-2.1-0.4-2.9-1.2c-0.3-0.3-0.6-0.6-0.8-0.9c-0.2,0.3-0.5,0.7-0.8,0.9
	c-0.8,0.7-1.8,1.2-2.9,1.2c-1.1,0-2.1-0.4-2.9-1.2c-0.3-0.3-0.6-0.6-0.8-0.9c-0.2,0.3-0.5,0.7-0.8,0.9c-0.8,0.7-1.8,1.2-2.9,1.2
	c-1.1,0-2.1-0.4-2.9-1.2c-0.3-0.3-0.6-0.6-0.8-0.9c-0.2,0.3-0.5,0.7-0.8,0.9c-0.8,0.7-1.8,1.2-2.9,1.2c-1.1,0-2.1-0.4-2.9-1.2
	c-0.3-0.3-0.6-0.6-0.8-0.9c-0.2,0.3-0.5,0.7-0.8,0.9c-0.8,0.7-1.8,1.2-2.9,1.2s-2.1-0.4-2.9-1.2c-0.3-0.3-0.6-0.6-0.8-0.9
	c-0.2,0.3-0.5,0.7-0.8,0.9c-0.8,0.7-1.8,1.2-2.9,1.2s-2.1-0.4-2.9-1.2C17.7,42.3,17.1,41.4,16.7,40.2z"/>
<path class="st1" d="M65.7,24.1v-2.3c0-0.5-0.4-0.9-1-0.9H29.3c-0.5,0-1,0.4-1,0.9v2.3H65.7L65.7,24.1z"/>
</svg>
