<svg width="821" height="576" viewBox="0 0 821 576" fill="none" xmlns="http://www.w3.org/2000/svg">
<path opacity="0.7" d="M410.5 576C637.213 576 821 564.795 821 550.974C821 537.152 637.213 525.947 410.5 525.947C183.787 525.947 0 537.152 0 550.974C0 564.795 183.787 576 410.5 576Z" fill="#5B9741"/>
<path d="M729.209 0H91.7913V93.2084H729.209V0Z" fill="white"/>
<path d="M727.042 90.0554H91.7913V554.127H727.042V90.0554Z" fill="#FCD227"/>
<path d="M727.042 90.0554H91.7913V554.127H727.042V90.0554Z" fill="#FCB976"/>
<path d="M91.7913 311.745C92.5792 311.745 93.1701 311.745 93.761 311.745C137.49 311.745 172.946 286.128 172.946 254.599C172.946 286.128 208.402 311.745 252.131 311.745C295.859 311.745 331.315 286.128 331.315 254.599C331.315 286.128 366.771 311.745 410.5 311.745C454.229 311.745 489.685 286.128 489.685 254.599C489.685 286.128 525.141 311.745 568.869 311.745C612.598 311.745 648.054 286.128 648.054 254.599C648.054 286.128 683.51 311.745 727.239 311.745V90.0554H91.7913V311.745Z" fill="#CC854F"/>
<path d="M489.685 224.252C489.685 255.781 454.229 281.399 410.5 281.399C366.771 281.399 331.315 255.781 331.315 224.252V45.5204H489.685V224.252Z" fill="#F1624F"/>
<path d="M806.424 224.252C806.424 255.781 770.968 281.399 727.239 281.399C683.51 281.399 648.054 255.781 648.054 224.252L613.78 45.7174H729.209L806.424 224.252Z" fill="#F1624F"/>
<path d="M648.054 224.252C648.054 255.781 612.598 281.399 568.87 281.399C525.141 281.399 489.685 255.781 489.685 224.252V45.5204H613.78L648.054 224.252Z" fill="white"/>
<path d="M568.87 281.399C612.598 281.399 648.054 255.781 648.054 224.252H489.685C489.685 255.781 525.141 281.399 568.87 281.399Z" fill="#E9E8E8"/>
<path d="M410.5 281.399C454.229 281.399 489.685 255.781 489.685 224.252H331.315C331.315 255.781 366.771 281.399 410.5 281.399Z" fill="#E23D26"/>
<path d="M727.239 281.399C770.968 281.399 806.424 255.781 806.424 224.252H648.054C648.054 255.781 683.51 281.399 727.239 281.399Z" fill="#E23D26"/>
<path d="M14.7732 224.252C14.7732 255.781 50.229 281.399 93.9579 281.399C137.687 281.399 173.143 255.781 173.143 224.252L207.417 45.7174H91.7912L14.7732 224.252Z" fill="#F1624F"/>
<path d="M173.143 224.252C173.143 255.781 208.598 281.399 252.327 281.399C296.056 281.399 331.512 255.781 331.512 224.252V45.5204H207.417L173.143 224.252Z" fill="white"/>
<path d="M252.131 281.399C208.402 281.399 172.946 255.781 172.946 224.252H331.315C331.315 255.781 295.859 281.399 252.131 281.399Z" fill="#E9E8E8"/>
<path d="M93.9579 281.399C50.229 281.399 14.7732 255.781 14.7732 224.252H173.143C173.143 255.781 137.687 281.399 93.9579 281.399Z" fill="#E23D26"/>
<path d="M729.209 23.2528H91.7913V45.7174H729.209V23.2528Z" fill="#FCB976"/>
<path d="M309.057 343.078H160.93V554.127H309.057V343.078Z" fill="#42454D"/>
<path d="M281.677 444.365C281.677 451.854 275.374 457.765 267.692 457.765C260.01 457.765 253.706 451.854 253.706 444.365C253.706 437.074 260.01 430.966 267.692 430.966C275.374 430.966 281.677 436.877 281.677 444.365Z" fill="white"/>
<path d="M667.949 343.078H391.59V492.842H667.949V343.078Z" fill="#F1624F"/>
<path d="M667.949 343.078H391.59V369.089H667.949V343.078Z" fill="#E23D26"/>
<path d="M495.468 430.443H483.093V438.822H497.617V444H476.648V412.719H497.574V417.939H483.093V425.395H495.468V430.443ZM508.704 420.754L508.898 423.439C510.559 421.363 512.787 420.324 515.579 420.324C518.043 420.324 519.876 421.048 521.079 422.494C522.283 423.941 522.899 426.104 522.927 428.982V444H516.718V429.133C516.718 427.815 516.432 426.863 515.859 426.275C515.286 425.674 514.333 425.373 513.001 425.373C511.254 425.373 509.943 426.118 509.07 427.607V444H502.861V420.754H508.704ZM537.087 415.039V420.754H541.062V425.309H537.087V436.91C537.087 437.77 537.252 438.385 537.581 438.758C537.911 439.13 538.541 439.316 539.472 439.316C540.16 439.316 540.768 439.266 541.298 439.166V443.871C540.081 444.243 538.828 444.43 537.538 444.43C533.184 444.43 530.964 442.231 530.878 437.834V425.309H527.484V420.754H530.878V415.039H537.087ZM557.22 444.43C553.811 444.43 551.033 443.384 548.884 441.293C546.75 439.202 545.683 436.416 545.683 432.936V432.334C545.683 429.999 546.134 427.915 547.037 426.082C547.939 424.234 549.214 422.816 550.861 421.828C552.522 420.826 554.413 420.324 556.533 420.324C559.712 420.324 562.212 421.327 564.031 423.332C565.864 425.337 566.781 428.18 566.781 431.861V434.396H551.978C552.178 435.915 552.78 437.132 553.783 438.049C554.8 438.965 556.081 439.424 557.628 439.424C560.02 439.424 561.889 438.557 563.236 436.824L566.287 440.24C565.356 441.558 564.095 442.589 562.505 443.334C560.915 444.064 559.154 444.43 557.22 444.43ZM556.511 425.352C555.279 425.352 554.277 425.767 553.503 426.598C552.744 427.428 552.257 428.617 552.042 430.164H560.679V429.67C560.65 428.295 560.278 427.235 559.562 426.49C558.846 425.731 557.829 425.352 556.511 425.352ZM585.388 426.576C584.543 426.462 583.798 426.404 583.154 426.404C580.805 426.404 579.265 427.199 578.535 428.789V444H572.326V420.754H578.191L578.363 423.525C579.609 421.391 581.335 420.324 583.54 420.324C584.228 420.324 584.872 420.417 585.474 420.604L585.388 426.576Z" fill="white"/>
</svg>
